<svg width="12" height="16" viewBox="0 0 12 16" fill="none" xmlns="http://www.w3.org/2000/svg">
<path d="M9.00001 0.5H3.00001C2.40327 0.5 1.83097 0.737053 1.40902 1.15901C0.987059 1.58097 0.750006 2.15326 0.750006 2.75V14.75C0.749481 14.8822 0.783887 15.0121 0.849739 15.1267C0.915592 15.2413 1.01055 15.3364 1.12501 15.4025C1.23902 15.4683 1.36835 15.503 1.50001 15.503C1.63166 15.503 1.76099 15.4683 1.87501 15.4025L6.00001 13.0175L10.125 15.4025C10.2393 15.4673 10.3686 15.5009 10.5 15.5C10.6314 15.5009 10.7607 15.4673 10.875 15.4025C10.9895 15.3364 11.0844 15.2413 11.1503 15.1267C11.2161 15.0121 11.2505 14.8822 11.25 14.75V2.75C11.25 2.15326 11.013 1.58097 10.591 1.15901C10.169 0.737053 9.59674 0.5 9.00001 0.5ZM9.75001 13.4525L6.37501 11.5025C6.26099 11.4367 6.13166 11.402 6.00001 11.402C5.86835 11.402 5.73902 11.4367 5.62501 11.5025L2.25001 13.4525V2.75C2.25001 2.55109 2.32902 2.36032 2.46968 2.21967C2.61033 2.07902 2.80109 2 3.00001 2H9.00001C9.19892 2 9.38968 2.07902 9.53034 2.21967C9.67099 2.36032 9.75001 2.55109 9.75001 2.75V13.4525Z" fill="#5A657B"/>
</svg>
