<svg width="11" height="11" viewBox="0 0 11 11" fill="none" xmlns="http://www.w3.org/2000/svg">
<mask id="path-1-inside-1_1889_1499" fill="white">
<path d="M9.47674 2.57917C9.72861 2.39417 9.78486 2.03767 9.57497 1.80612C8.8174 0.970371 7.8175 0.384122 6.70817 0.134338C5.41402 -0.15706 4.05817 0.0290917 2.89044 0.658491C1.72272 1.28789 0.821817 2.31812 0.353752 3.55935C-0.114314 4.80057 -0.118004 6.16915 0.343363 7.41288C0.804729 8.65661 1.70006 9.69168 2.86438 10.3274C4.02869 10.9631 5.38352 11.1565 6.67922 10.8721C7.97492 10.5877 9.12416 9.84456 9.91518 8.77966C10.5932 7.86683 10.9689 6.77031 10.9982 5.64269C11.0063 5.33028 10.7311 5.0967 10.4195 5.12072V5.12072C10.1079 5.14475 9.87866 5.41759 9.86224 5.72967C9.81725 6.58416 9.52186 7.41125 9.00667 8.1048C8.37842 8.95058 7.46565 9.54079 6.43657 9.76668C5.40749 9.99258 4.33144 9.83892 3.40671 9.33404C2.48197 8.82916 1.77087 8.00707 1.40444 7.01926C1.03801 6.03146 1.04094 4.94449 1.41269 3.95868C1.78444 2.97286 2.49997 2.15461 3.42741 1.65473C4.35485 1.15484 5.43172 1.00699 6.45956 1.23843C7.30243 1.42821 8.06576 1.86256 8.65712 2.48099C8.87311 2.70686 9.22486 2.76417 9.47674 2.57917V2.57917Z"/>
</mask>
<path d="M9.47674 2.57917C9.72861 2.39417 9.78486 2.03767 9.57497 1.80612C8.8174 0.970371 7.8175 0.384122 6.70817 0.134338C5.41402 -0.15706 4.05817 0.0290917 2.89044 0.658491C1.72272 1.28789 0.821817 2.31812 0.353752 3.55935C-0.114314 4.80057 -0.118004 6.16915 0.343363 7.41288C0.804729 8.65661 1.70006 9.69168 2.86438 10.3274C4.02869 10.9631 5.38352 11.1565 6.67922 10.8721C7.97492 10.5877 9.12416 9.84456 9.91518 8.77966C10.5932 7.86683 10.9689 6.77031 10.9982 5.64269C11.0063 5.33028 10.7311 5.0967 10.4195 5.12072V5.12072C10.1079 5.14475 9.87866 5.41759 9.86224 5.72967C9.81725 6.58416 9.52186 7.41125 9.00667 8.1048C8.37842 8.95058 7.46565 9.54079 6.43657 9.76668C5.40749 9.99258 4.33144 9.83892 3.40671 9.33404C2.48197 8.82916 1.77087 8.00707 1.40444 7.01926C1.03801 6.03146 1.04094 4.94449 1.41269 3.95868C1.78444 2.97286 2.49997 2.15461 3.42741 1.65473C4.35485 1.15484 5.43172 1.00699 6.45956 1.23843C7.30243 1.42821 8.06576 1.86256 8.65712 2.48099C8.87311 2.70686 9.22486 2.76417 9.47674 2.57917V2.57917Z" stroke="#4D5E80" stroke-width="19.525" mask="url(#path-1-inside-1_1889_1499)"/>
</svg>
